# Blender v2.79 (sub 0) OBJ File: 'Dream_Room.blend'
# www.blender.org
mtllib Conjunto_SalaSonho.mtl
o Door_Flare_Cube.004
v -2.355904 0.016196 -1.662889
v -2.355904 1.979767 -1.662889
v -2.039077 0.003832 -2.012540
v -2.039077 2.074996 -2.012540
v -0.734999 0.016196 -1.662889
v -0.734999 1.979767 -1.662889
v -1.051826 0.003832 -2.012540
v -1.051826 2.074996 -2.012540
vt 0.482239 0.016546
vt 0.762443 0.010704
vt 0.762444 0.989296
vt 0.482240 0.944302
vt 0.763218 0.989296
vt 0.483014 0.983454
vt 0.483014 0.055698
vt 0.763217 0.010704
vt 0.782706 0.729245
vt 0.992618 0.882215
vt 0.992618 0.099609
vt 0.782706 0.252580
vt 0.775203 0.729245
vt 0.775203 0.252580
vt 0.992625 0.099609
vt 0.992625 0.882215
vn 0.7410 0.0000 0.6715
vn -0.7410 0.0000 0.6715
vn 0.0000 0.9994 -0.0353
vn 0.0000 0.9649 0.2628
usemtl None
s off
f 1/1/1 3/2/1 4/3/1 2/4/1
f 7/5/2 5/6/2 6/7/2 8/8/2
f 3/9/3 1/10/3 5/11/3 7/12/3
f 8/13/4 4/14/4 2/15/4 6/16/4
o Window_Flare_Cube.003
v 0.208505 0.860001 -1.656472
v 0.208505 2.336576 -1.656472
v 0.478178 1.129673 -1.998754
v 0.478178 2.066904 -1.998754
v 1.685081 0.860001 -1.656472
v 1.685081 2.336576 -1.656472
v 1.415408 1.129673 -1.998754
v 1.415408 2.066904 -1.998754
vt 0.261695 0.976530
vt 0.023430 0.802469
vt 0.023430 0.197530
vt 0.261695 0.023469
vt 0.023411 0.197531
vt 0.261677 0.023469
vt 0.261677 0.976531
vt 0.023412 0.802469
vt 0.023393 0.197531
vt 0.261659 0.023469
vt 0.261659 0.976531
vt 0.023393 0.802469
vt 0.023407 0.197531
vt 0.261673 0.023469
vt 0.261673 0.976531
vt 0.023408 0.802469
vn 0.7855 0.0000 0.6189
vn -0.7855 0.0000 0.6189
vn 0.0000 0.7855 0.6189
vn 0.0000 -0.7855 0.6189
usemtl None
s off
f 9/17/5 11/18/5 12/19/5 10/20/5
f 15/21/6 13/22/6 14/23/6 16/24/6
f 11/25/7 9/26/7 13/27/7 15/28/7
f 16/29/8 14/30/8 10/31/8 12/32/8
o Door_Backdrop_Plane.009
v -2.133420 -0.029644 -2.106983
v -0.974391 -0.029644 -2.106983
v -2.133420 2.138494 -2.106983
v -0.974391 2.138494 -2.106983
vt 0.533716 0.951103
vt 0.044631 0.951103
vt 0.044631 0.036197
vt 0.533716 0.036197
vn 0.0000 0.0000 1.0000
usemtl None
s off
f 17/33/9 18/34/9 20/35/9 19/36/9
o Window_Backdrop_Plane.008
v 0.355985 0.810080 -3.085796
v 1.746714 0.810080 -3.085796
v 0.355985 2.200809 -3.085796
v 1.746714 2.200809 -3.085796
vt 0.000100 0.000100
vt 0.999900 0.000100
vt 0.999900 0.999900
vt 0.000100 0.999900
vn 0.0000 0.0000 1.0000
usemtl None
s off
f 21/37/10 22/38/10 24/39/10 23/40/10
o Floor_Plane.007
v -2.992538 0.000000 2.000000
v 3.007462 0.000000 2.000000
v -2.992538 -0.000000 -2.000000
v 3.007462 -0.000000 -2.000000
v -1.045456 -0.000000 -2.000000
v -2.045455 -0.000000 -2.000000
vt 0.015633 0.656272
vt 0.015633 0.010449
vt 0.168545 0.656272
vt 0.984367 0.010449
vt 0.330000 0.656272
vt 0.984367 0.656272
vn 0.0000 1.0000 -0.0000
usemtl None
s off
f 27/41/11 25/42/11 30/43/11
f 25/42/11 26/44/11 29/45/11 30/43/11
f 26/44/11 28/46/11 29/45/11
o Wall_Plane.006
v -2.036431 0.007812 -2.011214
v -1.054272 0.007812 -2.011214
v -2.036431 2.065976 -2.011214
v -1.054272 2.065976 -2.011214
v -2.036431 1.036894 -2.011214
v -1.054272 1.036894 -2.011214
v -1.933847 0.110396 -2.011214
v -1.933847 0.934311 -2.011214
v -1.156856 0.934311 -2.011214
v -1.156856 0.110396 -2.011214
v -1.156856 1.139477 -2.011214
v -1.933847 1.139477 -2.011214
v -1.933847 1.963392 -2.011214
v -1.156856 1.963392 -2.011214
v -1.875573 0.172189 -2.002637
v -1.875573 0.872517 -2.002637
v -1.215130 0.872517 -2.002637
v -1.215130 0.172189 -2.002637
v -1.215130 1.201271 -2.002637
v -1.875573 1.201271 -2.002637
v -1.875573 1.901599 -2.002637
v -1.215130 1.901599 -2.002637
v -2.036431 0.007812 -2.044660
v -1.054272 0.007812 -2.044660
v -2.036431 2.065976 -2.044660
v -1.054272 2.065976 -2.044660
v -2.036431 1.036894 -2.044660
v -1.054272 1.036894 -2.044660
v -2.992539 0.000000 -2.000000
v 3.007462 0.000000 -2.000000
v -2.992539 2.800000 -2.000000
v 3.007462 2.800000 -2.000000
v -1.045456 0.000000 -2.000000
v -1.045455 2.075559 -2.000000
v -2.045455 2.075559 -2.000000
v 1.424032 1.120879 -2.000000
v 0.469328 1.120879 -2.000000
v -2.045455 0.000000 -2.000000
v 1.424032 2.075582 -2.000000
v 0.469328 2.075582 -2.000000
vt 0.187819 0.172487
vt 0.197221 0.162518
vt 0.303775 0.162518
vt 0.313177 0.172487
vt 0.187819 0.039559
vt 0.197221 0.049529
vt 0.171269 0.023009
vt 0.171269 0.189038
vt 0.329728 0.189038
vt 0.313177 0.039559
vt 0.329728 0.023009
vt 0.313177 0.205589
vt 0.187819 0.205589
vt 0.187819 0.338517
vt 0.171269 0.355067
vt 0.313177 0.338517
vt 0.329728 0.355067
vt 0.303775 0.049529
vt 0.303775 0.215558
vt 0.303775 0.328547
vt 0.197221 0.328547
vt 0.197221 0.215558
vt 0.329728 0.189038
vt 0.329728 0.355067
vt 0.171269 0.355067
vt 0.171269 0.189038
vt 0.171269 0.023009
vt 0.329728 0.023009
vt 0.169813 0.021748
vt 0.169813 0.356614
vt 0.017013 0.473493
vt 0.017013 0.021748
vt 0.331150 0.356614
vt 0.985038 0.473493
vt 0.729571 0.356617
vt 0.575542 0.356617
vt 0.331150 0.021748
vt 0.575542 0.202588
vt 0.985038 0.021748
vt 0.729571 0.202588
vn 0.0000 0.1375 0.9905
vn -0.1456 0.0000 0.9893
vn 0.0000 0.0000 1.0000
vn 0.1456 0.0000 0.9893
vn 0.0000 -0.1375 0.9905
vn 1.0000 0.0000 0.0000
vn 0.0000 1.0000 0.0000
vn -1.0000 0.0000 0.0000
vn 0.0000 -1.0000 0.0000
usemtl None
s off
f 38/47/12 46/48/12 47/49/12 39/50/12
f 37/51/13 45/52/13 46/48/13 38/47/13
f 31/53/14 37/51/14 38/47/14 35/54/14
f 35/54/14 38/47/14 39/50/14 36/55/14
f 36/55/14 39/50/14 40/56/14 32/57/14
f 32/57/14 40/56/14 37/51/14 31/53/14
f 36/55/14 41/58/14 42/59/14 35/54/14
f 35/54/14 42/59/14 43/60/14 33/61/14
f 33/61/14 43/60/14 44/62/14 34/63/14
f 34/63/14 44/62/14 41/58/14 36/55/14
f 45/52/14 48/64/14 47/49/14 46/48/14
f 49/65/14 52/66/14 51/67/14 50/68/14
f 39/50/15 47/49/15 48/64/15 40/56/15
f 43/60/12 51/67/12 52/66/12 44/62/12
f 40/56/16 48/64/16 45/52/16 37/51/16
f 41/58/16 49/65/16 50/68/16 42/59/16
f 42/59/13 50/68/13 51/67/13 43/60/13
f 44/62/15 52/66/15 49/65/15 41/58/15
f 34/63/17 36/55/17 58/69/17 56/70/17
f 33/61/18 34/63/18 56/70/18 55/71/18
f 35/54/19 33/61/19 55/71/19 57/72/19
f 32/57/20 31/53/20 53/73/20 54/74/20
f 36/55/17 32/57/17 54/74/17 58/69/17
f 31/53/19 35/54/19 57/72/19 53/73/19
f 36/55/20 35/54/20 57/72/20 58/69/20
f 68/75/14 65/76/14 61/77/14 59/78/14
f 61/77/14 65/76/14 64/79/14 62/80/14
f 69/81/14 62/80/14 70/82/14
f 62/80/14 64/79/14 70/82/14
f 70/82/14 64/79/14 63/83/14 67/84/14
f 67/84/14 63/83/14 60/85/14 66/86/14
f 60/85/14 62/80/14 69/81/14 66/86/14
l 63 68
o Window_Plane.005
v 0.439627 1.598289 -1.985007
v 0.473416 1.598289 -2.108935
v 0.435430 1.598289 -1.991217
v 0.439627 2.105453 -1.985007
v 0.419889 2.125191 -2.002741
v 0.420333 2.124746 -1.993435
v 0.435429 2.109649 -1.991217
v 0.473416 1.598289 -1.987703
v 0.470757 1.598289 -1.985044
v 0.470757 2.074323 -1.985044
v 0.473416 2.071663 -2.108935
v 1.453959 2.105453 -1.985007
v 1.473252 2.124746 -1.993435
v 1.420171 2.071663 -2.108935
v 0.473417 2.071663 -1.987703
v 1.420170 2.071663 -1.987703
v 1.473698 2.125190 -2.002741
v 1.458157 2.109650 -1.991217
v 1.473697 1.598289 -2.002742
v 1.422830 2.074322 -1.985044
v 1.420170 1.598289 -1.987703
v 1.453959 1.598289 -1.985007
v 1.420170 1.598289 -2.108935
v 1.473252 1.598289 -1.993435
v 1.458156 1.598289 -1.991217
v 1.453959 1.091123 -1.985007
v 1.473697 1.071386 -2.002741
v 1.473253 1.071831 -1.993435
v 1.458157 1.086927 -1.991217
v 1.422829 1.598289 -1.985044
v 1.422829 1.122254 -1.985044
v 1.420170 1.124914 -2.108935
v 0.439627 1.091124 -1.985007
v 0.420334 1.071831 -1.993435
v 0.473415 1.124914 -2.108935
v 1.420169 1.124914 -1.987703
v 0.473416 1.124914 -1.987703
v 0.419888 1.071387 -2.002741
v 0.435429 1.086927 -1.991217
v 0.419889 1.598289 -2.002742
v 0.420334 1.598289 -1.993436
v 0.470756 1.122254 -1.985044
v 0.933508 1.585006 -2.055361
v 0.933508 1.611450 -2.055361
v 0.933508 1.585006 -2.068994
v 0.933508 1.611450 -2.068994
v 0.959952 1.585006 -2.055361
v 0.959952 1.611450 -2.055361
v 0.959952 1.585006 -2.068994
v 0.959952 1.611450 -2.068994
v 0.461450 1.585006 -2.068994
v 0.461450 1.585006 -2.055361
v 0.461450 1.611450 -2.055361
v 0.461450 1.611450 -2.068994
v 0.933508 2.085878 -2.055361
v 0.933508 2.085878 -2.068994
v 0.959952 2.085878 -2.068994
v 0.959952 2.085878 -2.055361
v 1.433439 1.611450 -2.068994
v 1.433439 1.585006 -2.068994
v 1.433439 1.585006 -2.055361
v 1.433439 1.611450 -2.055361
v 0.933508 1.107183 -2.068994
v 0.933508 1.107183 -2.055361
v 0.959952 1.107183 -2.068994
v 0.959952 1.107183 -2.055361
vt 0.261412 0.013749
vt 0.261412 0.020848
vt 0.020851 0.020847
vt 0.013749 0.013749
vt 0.739959 0.549693
vt 0.739959 0.545312
vt 0.987514 0.545312
vt 0.987724 0.549693
vt 0.732651 0.536552
vt 0.732651 0.533599
vt 0.971135 0.533599
vt 0.973108 0.536552
vt 0.088351 0.263959
vt 0.031327 0.263959
vt 0.031327 0.041364
vt 0.088351 0.041364
vt 0.089622 0.040113
vt 0.089622 0.263959
vt 0.747664 0.013749
vt 0.747664 0.028387
vt 0.523721 0.028387
vt 0.509076 0.013749
vt 0.020851 0.501764
vt 0.013749 0.508863
vt 0.492194 0.540932
vt 0.492403 0.536552
vt 0.987516 0.536552
vt 0.987726 0.540932
vt 0.492194 0.530647
vt 0.494167 0.527702
vt 0.971137 0.527702
vt 0.973110 0.530647
vt 0.146650 0.486555
vt 0.089622 0.486556
vt 0.089622 0.041363
vt 0.146650 0.041363
vt 0.147916 0.040113
vt 0.147916 0.487806
vt 0.523721 0.476080
vt 0.509076 0.490718
vt 0.261412 0.501764
vt 0.261412 0.508863
vt 0.492194 0.554074
vt 0.492403 0.549693
vt 0.739958 0.549693
vt 0.739958 0.554074
vt 0.492194 0.533599
vt 0.494167 0.530647
vt 0.732651 0.530647
vt 0.732651 0.533599
vt 0.938634 0.555345
vt 0.938634 0.612369
vt 0.716039 0.612369
vt 0.716039 0.555345
vt 0.716039 0.554074
vt 0.939885 0.554074
vt 0.747663 0.476080
vt 0.747663 0.490719
vt 0.501974 0.501764
vt 0.509076 0.508863
vt 0.987514 0.549693
vt 0.987724 0.554074
vt 0.971135 0.530647
vt 0.973108 0.533599
vt 0.493444 0.612369
vt 0.493445 0.555345
vt 0.492194 0.554074
vt 0.971606 0.476080
vt 0.986251 0.490719
vt 0.501974 0.020847
vt 0.509076 0.013749
vt 0.987726 0.540932
vt 0.987517 0.545312
vt 0.492403 0.545312
vt 0.492194 0.540932
vt 0.492194 0.527702
vt 0.494167 0.524757
vt 0.971137 0.524757
vt 0.973111 0.527702
vt 0.149182 0.041364
vt 0.206209 0.041363
vt 0.206209 0.486556
vt 0.149182 0.486556
vt 0.147916 0.487806
vt 0.147916 0.040113
vt 0.971606 0.028387
vt 0.986251 0.013749
vt 0.492194 0.549693
vt 0.492194 0.536552
vt 0.494167 0.533599
vt 0.088351 0.486554
vt 0.031327 0.486553
vt 0.089622 0.487804
vt 0.300861 0.040113
vt 0.307274 0.040113
vt 0.307274 0.262088
vt 0.300861 0.262088
vt 0.709601 0.279721
vt 0.700827 0.288536
vt 0.542929 0.131496
vt 0.551703 0.122681
vt 0.718420 0.288492
vt 0.709645 0.297307
vt 0.262384 0.264799
vt 0.255972 0.264799
vt 0.255972 0.040113
vt 0.262384 0.040113
vt 0.867023 0.121578
vt 0.875841 0.130349
vt 0.243531 0.040113
vt 0.255972 0.040113
vt 0.255972 0.262088
vt 0.243531 0.262088
vt 0.875841 0.445059
vt 0.867067 0.453874
vt 0.300861 0.262088
vt 0.294448 0.262088
vt 0.294448 0.040113
vt 0.300861 0.040113
vt 0.231090 0.263203
vt 0.218650 0.263203
vt 0.218650 0.040113
vt 0.231090 0.040113
vt 0.268797 0.040113
vt 0.275209 0.040113
vt 0.275209 0.263203
vt 0.268797 0.263203
vt 0.275209 0.040113
vt 0.281622 0.040113
vt 0.281622 0.263203
vt 0.275209 0.263203
vt 0.281622 0.040113
vt 0.288035 0.040113
vt 0.288035 0.262761
vt 0.281622 0.262761
vt 0.288035 0.040113
vt 0.294448 0.040113
vt 0.294448 0.262761
vt 0.288035 0.262761
vt 0.243531 0.262761
vt 0.231091 0.262761
vt 0.231090 0.040113
vt 0.243531 0.040113
vt 0.262384 0.040113
vt 0.268797 0.040113
vt 0.268797 0.264799
vt 0.262384 0.264799
vt 0.551098 0.456582
vt 0.542279 0.447811
vt 0.206209 0.040113
vt 0.218650 0.040113
vt 0.218650 0.264799
vt 0.206209 0.264799
vn -0.1454 -0.0000 0.9894
vn -0.9989 -0.0000 0.0477
vn -0.8285 -0.0000 0.5600
vn 1.0000 0.0000 -0.0000
vn 0.7071 -0.0000 0.7071
vn 0.0012 -0.0000 1.0000
vn 0.0000 0.1454 0.9894
vn 0.0000 0.9989 0.0477
vn 0.0000 0.8286 0.5599
vn -0.0000 -1.0000 -0.0000
vn -0.0000 -0.7071 0.7071
vn 0.0000 -0.0012 1.0000
vn 0.1454 0.0000 0.9894
vn 0.9989 -0.0000 0.0478
vn 0.8285 0.0000 0.5600
vn -1.0000 0.0000 -0.0000
vn -0.7071 0.0000 0.7071
vn -0.0012 -0.0000 1.0000
vn 0.9989 0.0000 0.0477
vn 0.0000 -0.1454 0.9894
vn -0.0000 -0.9989 0.0477
vn -0.0000 -0.8285 0.5599
vn 0.0000 1.0000 0.0000
vn 0.0000 0.7071 0.7071
vn 0.0000 0.0012 1.0000
vn -0.9989 0.0000 0.0478
vn 0.0000 0.0000 1.0000
vn 0.0000 0.0000 -1.0000
usemtl None
s off
f 111/87/21 73/88/21 77/89/21 76/90/21
f 110/91/22 111/92/22 76/93/22 75/94/22
f 73/95/23 71/96/23 74/97/23 77/98/23
f 78/99/24 72/100/24 81/101/24 85/102/24
f 80/103/25 79/104/25 78/99/25 85/102/25
f 71/105/26 79/106/26 80/107/26 74/108/26
f 76/90/27 77/89/27 88/109/27 83/110/27
f 75/111/28 76/112/28 83/113/28 87/114/28
f 77/115/29 74/116/29 82/117/29 88/118/29
f 85/119/30 81/120/30 84/121/30 86/122/30
f 90/123/31 80/124/31 85/119/31 86/122/31
f 74/108/32 80/107/32 90/125/32 82/126/32
f 83/110/33 88/109/33 95/127/33 94/128/33
f 87/129/34 83/130/34 94/131/34 89/132/34
f 88/133/35 82/134/35 92/135/35 95/136/35
f 86/137/36 84/138/36 93/139/36 91/140/36
f 100/141/37 90/142/37 86/137/37 91/140/37
f 82/126/38 90/125/38 100/143/38 92/144/38
f 94/128/33 95/127/33 99/145/33 98/146/33
f 89/132/39 94/131/39 98/147/39 97/148/39
f 95/136/35 92/135/35 96/149/35 99/150/35
f 91/140/36 93/139/36 102/151/36 106/152/36
f 101/153/37 100/141/37 91/140/37 106/152/37
f 92/144/38 100/143/38 101/154/38 96/155/38
f 98/146/40 99/145/40 109/156/40 104/157/40
f 97/158/41 98/159/41 104/160/41 108/161/41
f 99/162/42 96/163/42 103/164/42 109/165/42
f 106/166/43 102/167/43 105/168/43 107/169/43
f 112/170/44 101/171/44 106/166/44 107/169/44
f 96/155/45 101/154/45 112/172/45 103/173/45
f 104/157/21 109/156/21 73/88/21 111/87/21
f 108/174/46 104/160/46 111/92/46 110/91/46
f 109/175/23 103/176/23 71/96/23 73/95/23
f 107/177/24 105/178/24 72/100/24 78/99/24
f 79/104/25 112/179/25 107/177/25 78/99/25
f 103/173/26 112/172/26 79/106/26 71/105/26
f 115/180/30 113/181/30 122/182/30 121/183/30
f 118/184/47 117/185/47 131/186/47 132/187/47
f 117/185/47 118/184/47 114/188/47 113/189/47
f 113/190/36 115/191/36 133/192/36 134/193/36
f 114/188/47 118/184/47 128/194/47 125/195/47
f 116/196/48 115/197/48 121/198/48 124/199/48
f 113/189/47 114/188/47 123/200/47 122/201/47
f 114/202/43 116/203/43 124/204/43 123/205/43
f 120/206/48 116/207/48 126/208/48 127/209/48
f 118/210/24 120/211/24 127/212/24 128/213/24
f 116/214/36 114/215/36 125/216/36 126/217/36
f 117/218/30 119/219/30 130/220/30 131/221/30
f 120/222/43 118/223/43 132/224/43 129/225/43
f 119/226/48 120/227/48 129/228/48 130/229/48
f 119/230/24 117/231/24 136/232/24 135/233/24
f 117/185/47 113/189/47 134/234/47 136/235/47
f 115/236/48 119/237/48 135/238/48 133/239/48
o DoorFrame_Plane.004
v -2.055300 -0.001282 -1.985044
v -2.074263 -0.001282 -2.002082
v -2.041411 -0.001282 -2.108935
v -2.073836 -0.001282 -1.993141
v -2.059332 -0.001282 -1.991010
v -2.055300 2.085553 -1.985044
v -2.074264 2.104516 -2.002082
v -2.073836 2.104088 -1.993141
v -2.059333 2.089584 -1.991010
v -2.041411 -0.001282 -1.987703
v -2.044070 -0.001282 -1.985044
v -2.044071 2.074323 -1.985044
v -2.041412 2.071663 -2.108935
v -1.035473 2.085552 -1.985044
v -1.016938 2.104088 -1.993141
v -1.049361 2.071663 -2.108935
v -2.041411 2.071663 -1.987703
v -1.049362 2.071663 -1.987703
v -1.016510 2.104515 -2.002082
v -1.031441 2.089585 -1.991010
v -1.035473 -0.001282 -1.985044
v -1.016510 -0.001282 -2.002082
v -1.049362 -0.001282 -2.108935
v -1.016937 -0.001282 -1.993141
v -1.031441 -0.001282 -1.991010
v -1.046702 2.074322 -1.985044
v -1.046703 -0.001282 -1.985044
v -1.049362 -0.001282 -1.987703
vt 0.000000 0.000025
vt 0.005852 0.000000
vt 0.005852 0.992615
vt 0.000000 0.999525
vt 0.987888 0.000000
vt 0.991498 0.000000
vt 0.991498 0.999797
vt 0.987888 1.000000
vt 0.997555 0.000000
vt 1.000000 0.000000
vt 1.000000 0.990995
vt 0.997555 0.992909
vt 0.889001 0.000000
vt 0.937901 0.000000
vt 0.937901 0.984398
vt 0.889001 0.984398
vt 0.887903 0.985662
vt 0.887903 0.000000
vt 0.837904 0.990701
vt 0.833373 0.990701
vt 0.833373 0.005331
vt 0.837904 0.000000
vt 0.420579 0.992615
vt 0.426431 0.999525
vt 0.937901 0.473630
vt 0.941379 0.473832
vt 0.941378 0.975732
vt 0.937901 0.975935
vt 0.941379 0.473630
vt 0.944176 0.475545
vt 0.944176 0.959839
vt 0.941379 0.961754
vt 0.938974 0.001263
vt 0.987888 0.001263
vt 0.987888 0.472367
vt 0.938974 0.472367
vt 0.937901 0.473630
vt 0.937901 0.000000
vt 0.430962 0.005331
vt 0.426431 0.000000
vt 0.420579 0.000000
vt 0.426431 0.000025
vt 0.995109 0.999999
vt 0.991498 0.999796
vt 0.991499 0.000000
vt 0.995109 0.000000
vt 0.997554 0.992909
vt 0.995109 0.990994
vt 0.995109 0.000000
vt 0.997555 0.000000
vt 0.886804 0.984399
vt 0.837904 0.984399
vt 0.837904 0.000000
vt 0.886804 0.000000
vt 0.887902 0.000000
vt 0.887903 0.985662
vt 0.430962 0.990701
vt 0.426431 0.990701
vn -0.1454 -0.0000 0.9894
vn -0.9989 -0.0000 0.0477
vn -0.8285 -0.0000 0.5600
vn 1.0000 0.0000 -0.0000
vn 0.7071 -0.0000 0.7071
vn 0.0000 -0.0000 1.0000
vn 0.0000 0.1454 0.9894
vn 0.0000 0.9989 0.0478
vn 0.0000 0.8285 0.5599
vn -0.0000 -1.0000 -0.0000
vn -0.0000 -0.7070 0.7072
vn 0.1454 -0.0000 0.9894
vn 0.9989 -0.0000 0.0478
vn 0.8285 -0.0000 0.5600
vn -1.0000 0.0000 -0.0000
vn -0.7071 0.0000 0.7071
usemtl None
s off
f 140/240/49 141/241/49 145/242/49 144/243/49
f 138/244/50 140/245/50 144/246/50 143/247/50
f 141/248/51 137/249/51 142/250/51 145/251/51
f 146/252/52 139/253/52 149/254/52 153/255/52
f 148/256/53 147/257/53 146/252/53 153/255/53
f 137/258/54 147/259/54 148/260/54 142/261/54
f 144/243/55 145/242/55 156/262/55 151/263/55
f 143/264/56 144/265/56 151/266/56 155/267/56
f 145/268/57 142/269/57 150/270/57 156/271/57
f 153/272/58 149/273/58 152/274/58 154/275/58
f 162/276/59 148/277/59 153/272/59 154/275/59
f 142/261/54 148/260/54 162/278/54 150/279/54
f 151/263/60 156/262/60 161/280/60 160/281/60
f 155/282/61 151/283/61 160/284/61 158/285/61
f 156/286/62 150/287/62 157/288/62 161/289/62
f 154/290/63 152/291/63 159/292/63 164/293/63
f 163/294/64 162/295/64 154/290/64 164/293/64
f 150/279/54 162/278/54 163/296/54 157/297/54
o Skirting_Plane.002
v -2.997219 0.061041 -2.003856
v -2.997219 0.061041 -1.990985
v -2.997219 0.036111 -1.989246
v -2.997219 -0.001916 -1.968612
v -2.997219 0.036111 -1.982179
v -2.110212 0.061041 -2.003855
v -2.110213 0.061041 -1.990985
v -2.110213 0.036111 -1.989246
v -2.110213 -0.001916 -1.968612
v -2.110213 0.036111 -1.982179
v -0.981935 0.036111 -1.982179
v -0.981935 -0.001916 -1.968612
v -0.981935 0.036111 -1.989246
v -0.981935 0.061041 -1.990985
v -0.981936 0.061041 -2.003855
v 3.020694 0.036111 -1.982179
v 3.020694 -0.001916 -1.968612
v 3.020694 0.036111 -1.989246
v 3.020694 0.061041 -1.990985
v 3.020694 0.061041 -2.003856
v -0.997265 0.036111 -1.988526
v -1.006858 -0.001916 -1.978933
v -0.992268 0.036111 -1.993523
v -0.991038 0.061041 -1.994753
v -0.981936 0.061041 -2.003855
v -1.003613 0.036111 -2.003854
v -1.017179 -0.001916 -2.003854
v -0.996546 0.036111 -2.003854
v -0.994806 0.061041 -2.003854
v -0.981936 0.061041 -2.003855
v -2.094883 0.036111 -1.988526
v -2.085290 -0.001916 -1.978933
v -2.099880 0.036111 -1.993523
v -2.101110 0.061041 -1.994753
v -2.110212 0.061041 -2.003855
v -2.088535 0.036111 -2.003854
v -2.074969 -0.001916 -2.003854
v -2.095602 0.036111 -2.003854
v -2.097342 0.061041 -2.003854
v -2.110212 0.061041 -2.003855
vt 0.355199 0.903446
vt 0.022559 0.901655
vt 0.022555 0.886422
vt 0.357216 0.886339
vt 0.353993 0.923177
vt 0.022555 0.922692
vt 0.022558 0.916577
vt 0.353157 0.917579
vt 0.022577 0.907710
vt 0.355625 0.907258
vt 0.061308 0.969975
vt 0.056914 0.952986
vt 0.975650 0.956074
vt 0.975477 0.971196
vt 0.057326 0.947379
vt 0.055948 0.926712
vt 0.975781 0.923333
vt 0.975780 0.939387
vt 0.059601 0.981230
vt 0.975247 0.988074
vt 0.059394 0.981196
vt 0.054796 0.971555
vt 0.048467 0.955322
vt 0.046456 0.950536
vt 0.039297 0.927969
vt 0.059301 0.981375
vt 0.049081 0.975964
vt 0.040898 0.959468
vt 0.037182 0.956658
vt 0.022555 0.935249
vt 0.356789 0.918463
vt 0.354096 0.923161
vt 0.362708 0.905525
vt 0.361205 0.908712
vt 0.369706 0.889139
vt 0.359811 0.921215
vt 0.354131 0.923260
vt 0.368640 0.910209
vt 0.365892 0.911847
vt 0.380885 0.896004
vn 0.0000 0.3360 0.9419
vn -0.0000 1.0000 0.0000
vn 0.0000 0.0696 0.9976
vn -0.3817 0.0643 0.9221
vn -0.3634 0.3130 0.8775
vn -0.9220 0.0643 0.3818
vn -0.8775 0.3130 0.3634
vn 0.3817 0.0643 0.9221
vn 0.3633 0.3130 0.8775
vn 0.9220 0.0643 0.3818
vn 0.8775 0.3130 0.3634
usemtl None
s off
f 174/298/65 169/299/65 168/300/65 173/301/65
f 170/302/66 165/303/66 166/304/66 171/305/66
f 171/305/67 166/304/67 167/306/67 172/307/67
f 172/307/66 167/306/66 169/299/66 174/298/66
f 178/308/67 177/309/67 182/310/67 183/311/67
f 175/312/65 176/313/65 181/314/65 180/315/65
f 179/316/66 178/308/66 183/311/66 184/317/66
f 177/309/66 175/312/66 180/315/66 182/310/66
f 178/308/66 179/316/66 189/318/66 188/319/66
f 175/312/66 177/309/66 187/320/66 185/321/66
f 177/309/68 178/308/68 188/319/68 187/320/68
f 176/313/69 175/312/69 185/321/69 186/322/69
f 188/319/66 189/318/66 194/323/66 193/324/66
f 185/321/66 187/320/66 192/325/66 190/326/66
f 187/320/70 188/319/70 193/324/70 192/325/70
f 186/322/71 185/321/71 190/326/71 191/327/71
f 171/305/66 198/328/66 199/329/66 170/302/66
f 174/298/66 195/330/66 197/331/66 172/307/66
f 172/307/72 197/331/72 198/328/72 171/305/72
f 173/301/73 196/332/73 195/330/73 174/298/73
f 198/328/66 203/333/66 204/334/66 199/329/66
f 195/330/66 200/335/66 202/336/66 197/331/66
f 197/331/74 202/336/74 203/333/74 198/328/74
f 196/332/75 201/337/75 200/335/75 195/330/75
