# Blender v2.79 (sub 0) OBJ File: 'Dream_Room.blend'
# www.blender.org
mtllib Door_Flare.mtl
o Door_Flare_Cube.004
v -2.355904 0.016196 -1.662889
v -2.355904 1.979767 -1.662889
v -2.039077 0.003832 -2.012540
v -2.039077 2.074996 -2.012540
v -0.734999 0.016196 -1.662889
v -0.734999 1.979767 -1.662889
v -1.051826 0.003832 -2.012540
v -1.051826 2.074996 -2.012540
vt 0.482239 0.016546
vt 0.762443 0.010704
vt 0.762444 0.989296
vt 0.482240 0.944302
vt 0.763218 0.989296
vt 0.483014 0.983454
vt 0.483014 0.055698
vt 0.763217 0.010704
vt 0.782706 0.729245
vt 0.992618 0.882215
vt 0.992618 0.099609
vt 0.782706 0.252580
vt 0.775203 0.729245
vt 0.775203 0.252580
vt 0.992625 0.099609
vt 0.992625 0.882215
vn 0.7410 0.0000 0.6715
vn -0.7410 0.0000 0.6715
vn 0.0000 0.9994 -0.0353
vn 0.0000 0.9649 0.2628
usemtl None
s off
f 1/1/1 3/2/1 4/3/1 2/4/1
f 7/5/2 5/6/2 6/7/2 8/8/2
f 3/9/3 1/10/3 5/11/3 7/12/3
f 8/13/4 4/14/4 2/15/4 6/16/4
