# Blender v2.79 (sub 0) OBJ File: 'Dream_Room.blend'
# www.blender.org
mtllib Door_Frame.mtl
o DoorFrame_Plane.004
v -2.055300 -0.001282 -1.985044
v -2.074263 -0.001282 -2.002082
v -2.041411 -0.001282 -2.108935
v -2.073836 -0.001282 -1.993141
v -2.059332 -0.001282 -1.991010
v -2.055300 2.085553 -1.985044
v -2.074264 2.104516 -2.002082
v -2.073836 2.104088 -1.993141
v -2.059333 2.089584 -1.991010
v -2.041411 -0.001282 -1.987703
v -2.044070 -0.001282 -1.985044
v -2.044071 2.074323 -1.985044
v -2.041412 2.071663 -2.108935
v -1.035473 2.085552 -1.985044
v -1.016938 2.104088 -1.993141
v -1.049361 2.071663 -2.108935
v -2.041411 2.071663 -1.987703
v -1.049362 2.071663 -1.987703
v -1.016510 2.104515 -2.002082
v -1.031441 2.089585 -1.991010
v -1.035473 -0.001282 -1.985044
v -1.016510 -0.001282 -2.002082
v -1.049362 -0.001282 -2.108935
v -1.016937 -0.001282 -1.993141
v -1.031441 -0.001282 -1.991010
v -1.046702 2.074322 -1.985044
v -1.046703 -0.001282 -1.985044
v -1.049362 -0.001282 -1.987703
vt 0.000000 0.000025
vt 0.005852 0.000000
vt 0.005852 0.992615
vt 0.000000 0.999525
vt 0.987888 0.000000
vt 0.991498 0.000000
vt 0.991498 0.999797
vt 0.987888 1.000000
vt 0.997555 0.000000
vt 1.000000 0.000000
vt 1.000000 0.990995
vt 0.997555 0.992909
vt 0.889001 0.000000
vt 0.937901 0.000000
vt 0.937901 0.984398
vt 0.889001 0.984398
vt 0.887903 0.985662
vt 0.887903 0.000000
vt 0.837904 0.990701
vt 0.833373 0.990701
vt 0.833373 0.005331
vt 0.837904 0.000000
vt 0.420579 0.992615
vt 0.426431 0.999525
vt 0.937901 0.473630
vt 0.941379 0.473832
vt 0.941378 0.975732
vt 0.937901 0.975935
vt 0.941379 0.473630
vt 0.944176 0.475545
vt 0.944176 0.959839
vt 0.941379 0.961754
vt 0.938974 0.001263
vt 0.987888 0.001263
vt 0.987888 0.472367
vt 0.938974 0.472367
vt 0.937901 0.473630
vt 0.937901 0.000000
vt 0.430962 0.005331
vt 0.426431 0.000000
vt 0.420579 0.000000
vt 0.426431 0.000025
vt 0.995109 0.999999
vt 0.991498 0.999796
vt 0.991499 0.000000
vt 0.995109 0.000000
vt 0.997554 0.992909
vt 0.995109 0.990994
vt 0.995109 0.000000
vt 0.997555 0.000000
vt 0.886804 0.984399
vt 0.837904 0.984399
vt 0.837904 0.000000
vt 0.886804 0.000000
vt 0.887902 0.000000
vt 0.887903 0.985662
vt 0.430962 0.990701
vt 0.426431 0.990701
vn -0.1454 -0.0000 0.9894
vn -0.9989 -0.0000 0.0477
vn -0.8285 -0.0000 0.5600
vn 1.0000 0.0000 -0.0000
vn 0.7071 -0.0000 0.7071
vn 0.0000 -0.0000 1.0000
vn 0.0000 0.1454 0.9894
vn 0.0000 0.9989 0.0478
vn 0.0000 0.8285 0.5599
vn -0.0000 -1.0000 -0.0000
vn -0.0000 -0.7070 0.7072
vn 0.1454 -0.0000 0.9894
vn 0.9989 -0.0000 0.0478
vn 0.8285 -0.0000 0.5600
vn -1.0000 0.0000 -0.0000
vn -0.7071 0.0000 0.7071
usemtl None
s off
f 4/1/1 5/2/1 9/3/1 8/4/1
f 2/5/2 4/6/2 8/7/2 7/8/2
f 5/9/3 1/10/3 6/11/3 9/12/3
f 10/13/4 3/14/4 13/15/4 17/16/4
f 12/17/5 11/18/5 10/13/5 17/16/5
f 1/19/6 11/20/6 12/21/6 6/22/6
f 8/4/7 9/3/7 20/23/7 15/24/7
f 7/25/8 8/26/8 15/27/8 19/28/8
f 9/29/9 6/30/9 14/31/9 20/32/9
f 17/33/10 13/34/10 16/35/10 18/36/10
f 26/37/11 12/38/11 17/33/11 18/36/11
f 6/22/6 12/21/6 26/39/6 14/40/6
f 15/24/12 20/23/12 25/41/12 24/42/12
f 19/43/13 15/44/13 24/45/13 22/46/13
f 20/47/14 14/48/14 21/49/14 25/50/14
f 18/51/15 16/52/15 23/53/15 28/54/15
f 27/55/16 26/56/16 18/51/16 28/54/16
f 14/40/6 26/39/6 27/57/6 21/58/6
