# Blender v2.79 (sub 0) OBJ File: 'Dream_Room.blend'
# www.blender.org
mtllib Skirtting.mtl
o Skirting_Plane.002
v -2.997219 0.061041 -2.003856
v -2.997219 0.061041 -1.990985
v -2.997219 0.036111 -1.989246
v -2.997219 -0.001916 -1.968612
v -2.997219 0.036111 -1.982179
v -2.110212 0.061041 -2.003855
v -2.110213 0.061041 -1.990985
v -2.110213 0.036111 -1.989246
v -2.110213 -0.001916 -1.968612
v -2.110213 0.036111 -1.982179
v -0.981935 0.036111 -1.982179
v -0.981935 -0.001916 -1.968612
v -0.981935 0.036111 -1.989246
v -0.981935 0.061041 -1.990985
v -0.981936 0.061041 -2.003855
v 3.020694 0.036111 -1.982179
v 3.020694 -0.001916 -1.968612
v 3.020694 0.036111 -1.989246
v 3.020694 0.061041 -1.990985
v 3.020694 0.061041 -2.003856
v -0.997265 0.036111 -1.988526
v -1.006858 -0.001916 -1.978933
v -0.992268 0.036111 -1.993523
v -0.991038 0.061041 -1.994753
v -0.981936 0.061041 -2.003855
v -1.003613 0.036111 -2.003854
v -1.017179 -0.001916 -2.003854
v -0.996546 0.036111 -2.003854
v -0.994806 0.061041 -2.003854
v -0.981936 0.061041 -2.003855
v -2.094883 0.036111 -1.988526
v -2.085290 -0.001916 -1.978933
v -2.099880 0.036111 -1.993523
v -2.101110 0.061041 -1.994753
v -2.110212 0.061041 -2.003855
v -2.088535 0.036111 -2.003854
v -2.074969 -0.001916 -2.003854
v -2.095602 0.036111 -2.003854
v -2.097342 0.061041 -2.003854
v -2.110212 0.061041 -2.003855
vt 0.355199 0.903446
vt 0.022559 0.901655
vt 0.022555 0.886422
vt 0.357216 0.886339
vt 0.353993 0.923177
vt 0.022555 0.922692
vt 0.022558 0.916577
vt 0.353157 0.917579
vt 0.022577 0.907710
vt 0.355625 0.907258
vt 0.061308 0.969975
vt 0.056914 0.952986
vt 0.975650 0.956074
vt 0.975477 0.971196
vt 0.057326 0.947379
vt 0.055948 0.926712
vt 0.975781 0.923333
vt 0.975780 0.939387
vt 0.059601 0.981230
vt 0.975247 0.988074
vt 0.059394 0.981196
vt 0.054796 0.971555
vt 0.048467 0.955322
vt 0.046456 0.950536
vt 0.039297 0.927969
vt 0.059301 0.981375
vt 0.049081 0.975964
vt 0.040898 0.959468
vt 0.037182 0.956658
vt 0.022555 0.935249
vt 0.356789 0.918463
vt 0.354096 0.923161
vt 0.362708 0.905525
vt 0.361205 0.908712
vt 0.369706 0.889139
vt 0.359811 0.921215
vt 0.354131 0.923260
vt 0.368640 0.910209
vt 0.365892 0.911847
vt 0.380885 0.896004
vn 0.0000 0.3360 0.9419
vn -0.0000 1.0000 0.0000
vn 0.0000 0.0696 0.9976
vn -0.3817 0.0643 0.9221
vn -0.3634 0.3130 0.8775
vn -0.9220 0.0643 0.3818
vn -0.8775 0.3130 0.3634
vn 0.3817 0.0643 0.9221
vn 0.3633 0.3130 0.8775
vn 0.9220 0.0643 0.3818
vn 0.8775 0.3130 0.3634
usemtl None
s off
f 10/1/1 5/2/1 4/3/1 9/4/1
f 6/5/2 1/6/2 2/7/2 7/8/2
f 7/8/3 2/7/3 3/9/3 8/10/3
f 8/10/2 3/9/2 5/2/2 10/1/2
f 14/11/3 13/12/3 18/13/3 19/14/3
f 11/15/1 12/16/1 17/17/1 16/18/1
f 15/19/2 14/11/2 19/14/2 20/20/2
f 13/12/2 11/15/2 16/18/2 18/13/2
f 14/11/2 15/19/2 25/21/2 24/22/2
f 11/15/2 13/12/2 23/23/2 21/24/2
f 13/12/4 14/11/4 24/22/4 23/23/4
f 12/16/5 11/15/5 21/24/5 22/25/5
f 24/22/2 25/21/2 30/26/2 29/27/2
f 21/24/2 23/23/2 28/28/2 26/29/2
f 23/23/6 24/22/6 29/27/6 28/28/6
f 22/25/7 21/24/7 26/29/7 27/30/7
f 7/8/2 34/31/2 35/32/2 6/5/2
f 10/1/2 31/33/2 33/34/2 8/10/2
f 8/10/8 33/34/8 34/31/8 7/8/8
f 9/4/9 32/35/9 31/33/9 10/1/9
f 34/31/2 39/36/2 40/37/2 35/32/2
f 31/33/2 36/38/2 38/39/2 33/34/2
f 33/34/10 38/39/10 39/36/10 34/31/10
f 32/35/11 37/40/11 36/38/11 31/33/11
