# Blender v2.79 (sub 0) OBJ File: 'Dream_Room.blend'
# www.blender.org
mtllib Window_Frame.mtl
o Window_Plane.005
v -0.507230 0.000228 0.042519
v -0.473440 0.000228 -0.081408
v -0.511427 0.000228 0.036309
v -0.507230 0.507393 0.042519
v -0.526968 0.527130 0.024785
v -0.526523 0.526685 0.034091
v -0.511427 0.511588 0.036309
v -0.473440 0.000228 0.039824
v -0.476100 0.000228 0.042483
v -0.476100 0.476262 0.042483
v -0.473441 0.473602 -0.081408
v 0.507103 0.507392 0.042519
v 0.526395 0.526685 0.034091
v 0.473314 0.473602 -0.081408
v -0.473440 0.473602 0.039824
v 0.473314 0.473602 0.039824
v 0.526841 0.527129 0.024785
v 0.511300 0.511589 0.036310
v 0.526840 0.000228 0.024785
v 0.475973 0.476261 0.042483
v 0.473313 0.000228 0.039823
v 0.507103 0.000228 0.042519
v 0.473313 0.000228 -0.081408
v 0.526395 0.000228 0.034091
v 0.511300 0.000228 0.036309
v 0.507103 -0.506938 0.042519
v 0.526841 -0.526675 0.024785
v 0.526396 -0.526230 0.034091
v 0.511300 -0.511133 0.036309
v 0.475972 0.000228 0.042483
v 0.475972 -0.475807 0.042483
v 0.473314 -0.473147 -0.081408
v -0.507230 -0.506937 0.042519
v -0.526523 -0.526230 0.034091
v -0.473441 -0.473147 -0.081408
v 0.473313 -0.473147 0.039824
v -0.473441 -0.473147 0.039824
v -0.526968 -0.526674 0.024785
v -0.511427 -0.511134 0.036309
v -0.526968 0.000228 0.024785
v -0.526523 0.000228 0.034091
v -0.476100 -0.475807 0.042483
v -0.013349 -0.013055 -0.027834
v -0.013349 0.013389 -0.027834
v -0.013349 -0.013055 -0.041467
v -0.013349 0.013389 -0.041467
v 0.013096 -0.013055 -0.027834
v 0.013096 0.013389 -0.027834
v 0.013096 -0.013055 -0.041467
v 0.013096 0.013389 -0.041467
v -0.485406 -0.013055 -0.041467
v -0.485406 -0.013055 -0.027834
v -0.485406 0.013389 -0.027834
v -0.485406 0.013389 -0.041467
v -0.013349 0.487817 -0.027834
v -0.013349 0.487817 -0.041467
v 0.013096 0.487817 -0.041467
v 0.013096 0.487817 -0.027834
v 0.486582 0.013389 -0.041467
v 0.486582 -0.013055 -0.041467
v 0.486582 -0.013055 -0.027834
v 0.486582 0.013389 -0.027834
v -0.013349 -0.490878 -0.041467
v -0.013349 -0.490878 -0.027834
v 0.013096 -0.490878 -0.041467
v 0.013096 -0.490878 -0.027834
vt 0.261412 0.013749
vt 0.261412 0.020848
vt 0.020851 0.020847
vt 0.013749 0.013749
vt 0.739959 0.549693
vt 0.739959 0.545312
vt 0.987514 0.545312
vt 0.987724 0.549693
vt 0.732651 0.536552
vt 0.732651 0.533599
vt 0.971135 0.533599
vt 0.973108 0.536552
vt 0.088351 0.263959
vt 0.031327 0.263959
vt 0.031327 0.041364
vt 0.088351 0.041364
vt 0.089622 0.040113
vt 0.089622 0.263959
vt 0.747664 0.013749
vt 0.747664 0.028387
vt 0.523721 0.028387
vt 0.509076 0.013749
vt 0.020851 0.501764
vt 0.013749 0.508863
vt 0.492194 0.540932
vt 0.492403 0.536552
vt 0.987516 0.536552
vt 0.987726 0.540932
vt 0.492194 0.530647
vt 0.494167 0.527702
vt 0.971137 0.527702
vt 0.973110 0.530647
vt 0.146650 0.486555
vt 0.089622 0.486556
vt 0.089622 0.041363
vt 0.146650 0.041363
vt 0.147916 0.040113
vt 0.147916 0.487806
vt 0.523721 0.476080
vt 0.509076 0.490718
vt 0.261412 0.501764
vt 0.261412 0.508863
vt 0.492194 0.554074
vt 0.492403 0.549693
vt 0.739958 0.549693
vt 0.739958 0.554074
vt 0.492194 0.533599
vt 0.494167 0.530647
vt 0.732651 0.530647
vt 0.732651 0.533599
vt 0.938634 0.555345
vt 0.938634 0.612369
vt 0.716039 0.612369
vt 0.716039 0.555345
vt 0.716039 0.554074
vt 0.939885 0.554074
vt 0.747663 0.476080
vt 0.747663 0.490719
vt 0.501974 0.501764
vt 0.509076 0.508863
vt 0.987514 0.549693
vt 0.987724 0.554074
vt 0.971135 0.530647
vt 0.973108 0.533599
vt 0.493444 0.612369
vt 0.493445 0.555345
vt 0.492194 0.554074
vt 0.971606 0.476080
vt 0.986251 0.490719
vt 0.501974 0.020847
vt 0.509076 0.013749
vt 0.987726 0.540932
vt 0.987517 0.545312
vt 0.492403 0.545312
vt 0.492194 0.540932
vt 0.492194 0.527702
vt 0.494167 0.524757
vt 0.971137 0.524757
vt 0.973111 0.527702
vt 0.149182 0.041364
vt 0.206209 0.041363
vt 0.206209 0.486556
vt 0.149182 0.486556
vt 0.147916 0.487806
vt 0.147916 0.040113
vt 0.971606 0.028387
vt 0.986251 0.013749
vt 0.492194 0.549693
vt 0.492194 0.536552
vt 0.494167 0.533599
vt 0.088351 0.486554
vt 0.031327 0.486553
vt 0.089622 0.487804
vt 0.300861 0.040113
vt 0.307274 0.040113
vt 0.307274 0.262088
vt 0.300861 0.262088
vt 0.709601 0.279721
vt 0.700827 0.288536
vt 0.542929 0.131496
vt 0.551703 0.122681
vt 0.718420 0.288492
vt 0.709645 0.297307
vt 0.262384 0.264799
vt 0.255972 0.264799
vt 0.255972 0.040113
vt 0.262384 0.040113
vt 0.867023 0.121578
vt 0.875841 0.130349
vt 0.243531 0.040113
vt 0.255972 0.040113
vt 0.255972 0.262088
vt 0.243531 0.262088
vt 0.875841 0.445059
vt 0.867067 0.453874
vt 0.300861 0.262088
vt 0.294448 0.262088
vt 0.294448 0.040113
vt 0.300861 0.040113
vt 0.231090 0.263203
vt 0.218650 0.263203
vt 0.218650 0.040113
vt 0.231090 0.040113
vt 0.268797 0.040113
vt 0.275209 0.040113
vt 0.275209 0.263203
vt 0.268797 0.263203
vt 0.275209 0.040113
vt 0.281622 0.040113
vt 0.281622 0.263203
vt 0.275209 0.263203
vt 0.281622 0.040113
vt 0.288035 0.040113
vt 0.288035 0.262761
vt 0.281622 0.262761
vt 0.288035 0.040113
vt 0.294448 0.040113
vt 0.294448 0.262761
vt 0.288035 0.262761
vt 0.243531 0.262761
vt 0.231091 0.262761
vt 0.231090 0.040113
vt 0.243531 0.040113
vt 0.262384 0.040113
vt 0.268797 0.040113
vt 0.268797 0.264799
vt 0.262384 0.264799
vt 0.551098 0.456582
vt 0.542279 0.447811
vt 0.206209 0.040113
vt 0.218650 0.040113
vt 0.218650 0.264799
vt 0.206209 0.264799
vn -0.1454 -0.0000 0.9894
vn -0.9989 -0.0000 0.0477
vn -0.8285 -0.0000 0.5600
vn 1.0000 0.0000 -0.0000
vn 0.7071 -0.0000 0.7071
vn 0.0012 -0.0000 1.0000
vn -0.0000 0.1454 0.9894
vn 0.0000 0.9989 0.0478
vn 0.0000 0.8286 0.5599
vn -0.0000 -1.0000 0.0000
vn -0.0000 -0.7071 0.7071
vn -0.0000 -0.0012 1.0000
vn 0.1454 -0.0000 0.9894
vn 0.9989 -0.0000 0.0478
vn 0.8285 -0.0000 0.5600
vn -1.0000 0.0000 -0.0000
vn -0.7071 0.0000 0.7071
vn -0.0012 -0.0000 1.0000
vn 0.9989 0.0000 0.0477
vn 0.0000 -0.1454 0.9894
vn -0.0000 -0.9989 0.0478
vn 0.0000 -0.8286 0.5599
vn 0.0000 1.0000 0.0000
vn 0.0000 0.7071 0.7071
vn 0.0000 0.0012 1.0000
vn -0.9989 0.0000 0.0478
vn 0.0000 0.0000 1.0000
vn 0.0000 0.0000 -1.0000
usemtl None
s off
f 41/1/1 3/2/1 7/3/1 6/4/1
f 40/5/2 41/6/2 6/7/2 5/8/2
f 3/9/3 1/10/3 4/11/3 7/12/3
f 8/13/4 2/14/4 11/15/4 15/16/4
f 10/17/5 9/18/5 8/13/5 15/16/5
f 1/19/6 9/20/6 10/21/6 4/22/6
f 6/4/7 7/3/7 18/23/7 13/24/7
f 5/25/8 6/26/8 13/27/8 17/28/8
f 7/29/9 4/30/9 12/31/9 18/32/9
f 15/33/10 11/34/10 14/35/10 16/36/10
f 20/37/11 10/38/11 15/33/11 16/36/11
f 4/22/12 10/21/12 20/39/12 12/40/12
f 13/24/13 18/23/13 25/41/13 24/42/13
f 17/43/14 13/44/14 24/45/14 19/46/14
f 18/47/15 12/48/15 22/49/15 25/50/15
f 16/51/16 14/52/16 23/53/16 21/54/16
f 30/55/17 20/56/17 16/51/17 21/54/17
f 12/40/18 20/39/18 30/57/18 22/58/18
f 24/42/13 25/41/13 29/59/13 28/60/13
f 19/46/19 24/45/19 28/61/19 27/62/19
f 25/50/15 22/49/15 26/63/15 29/64/15
f 21/54/16 23/53/16 32/65/16 36/66/16
f 31/67/17 30/55/17 21/54/17 36/66/17
f 22/58/18 30/57/18 31/68/18 26/69/18
f 28/60/20 29/59/20 39/70/20 34/71/20
f 27/72/21 28/73/21 34/74/21 38/75/21
f 29/76/22 26/77/22 33/78/22 39/79/22
f 36/80/23 32/81/23 35/82/23 37/83/23
f 42/84/24 31/85/24 36/80/24 37/83/24
f 26/69/25 31/68/25 42/86/25 33/87/25
f 34/71/1 39/70/1 3/2/1 41/1/1
f 38/88/26 34/74/26 41/6/26 40/5/26
f 39/89/3 33/90/3 1/10/3 3/9/3
f 37/91/4 35/92/4 2/14/4 8/13/4
f 9/18/5 42/93/5 37/91/5 8/13/5
f 33/87/6 42/86/6 9/20/6 1/19/6
f 45/94/10 43/95/10 52/96/10 51/97/10
f 48/98/27 47/99/27 61/100/27 62/101/27
f 47/99/27 48/98/27 44/102/27 43/103/27
f 43/104/16 45/105/16 63/106/16 64/107/16
f 44/102/27 48/98/27 58/108/27 55/109/27
f 46/110/28 45/111/28 51/112/28 54/113/28
f 43/103/27 44/102/27 53/114/27 52/115/27
f 44/116/23 46/117/23 54/118/23 53/119/23
f 50/120/28 46/121/28 56/122/28 57/123/28
f 48/124/4 50/125/4 57/126/4 58/127/4
f 46/128/16 44/129/16 55/130/16 56/131/16
f 47/132/10 49/133/10 60/134/10 61/135/10
f 50/136/23 48/137/23 62/138/23 59/139/23
f 49/140/28 50/141/28 59/142/28 60/143/28
f 49/144/4 47/145/4 66/146/4 65/147/4
f 47/99/27 43/103/27 64/148/27 66/149/27
f 45/150/28 49/151/28 65/152/28 63/153/28
