# Blender v2.79 (sub 0) OBJ File: 'Dream_Room.blend'
# www.blender.org
mtllib Window_Flare.mtl
o Window_Flare_Cube.003
v -0.738288 -0.738288 -0.126334
v -0.738288 0.738288 -0.126334
v -0.468615 -0.468615 -0.468615
v -0.468615 0.468615 -0.468615
v 0.738288 -0.738288 -0.126334
v 0.738288 0.738288 -0.126334
v 0.468615 -0.468615 -0.468615
v 0.468615 0.468615 -0.468615
vt 0.261695 0.976530
vt 0.023430 0.802469
vt 0.023430 0.197530
vt 0.261695 0.023469
vt 0.023411 0.197531
vt 0.261677 0.023469
vt 0.261677 0.976531
vt 0.023412 0.802469
vt 0.023393 0.197531
vt 0.261659 0.023469
vt 0.261659 0.976531
vt 0.023393 0.802469
vt 0.023407 0.197531
vt 0.261673 0.023469
vt 0.261673 0.976531
vt 0.023408 0.802469
vn 0.7855 0.0000 0.6189
vn -0.7855 0.0000 0.6189
vn 0.0000 0.7855 0.6189
vn 0.0000 -0.7855 0.6189
usemtl None
s off
f 1/1/1 3/2/1 4/3/1 2/4/1
f 7/5/2 5/6/2 6/7/2 8/8/2
f 3/9/3 1/10/3 5/11/3 7/12/3
f 8/13/4 6/14/4 2/15/4 4/16/4
