# Blender v2.79 (sub 0) OBJ File: 'Dream_Room.blend'
# www.blender.org
mtllib Fance.mtl
o Fance
v -0.079609 0.001685 0.724482
v -0.079609 0.001685 0.024481
v -0.079609 0.001685 0.124482
v -0.079609 0.201685 0.024482
v -0.079609 0.001685 -0.475518
v -0.079609 0.301685 0.824482
v -0.079609 0.201685 -0.675518
v -0.079609 0.301685 0.024482
v -0.079609 0.301685 -0.575518
v -0.079609 0.501685 0.024482
v -0.079609 0.501685 -0.175518
v -0.079609 0.501685 -0.475518
v -0.079609 0.501685 -0.575518
v 0.020391 0.201685 0.624482
v 0.020391 0.201685 0.424482
v 0.020391 0.201685 0.324482
v 0.020391 0.001685 0.024481
v 0.020391 0.201685 0.124482
v 0.020391 0.001685 -0.275518
v 0.020391 0.001685 -0.575519
v 0.020391 0.301685 0.424482
v 0.020391 0.301685 -0.175518
v 0.020391 0.501685 0.424482
v 0.020391 0.501685 0.324482
v 0.020391 0.501685 0.024482
v 0.020391 0.501685 -0.175518
v 0.020391 0.501685 -0.575518
v 0.020391 0.301685 0.724482
v -0.079609 0.301685 0.724482
v 0.020391 0.501685 0.724482
v -0.079609 0.001685 0.424481
v -0.079609 0.301685 0.424482
v 0.020391 0.001685 0.124482
v -0.079609 0.201685 0.124482
v 0.020391 0.301685 0.124482
v -0.079609 0.301685 0.124482
v 0.020391 0.501685 0.124482
v -0.079609 0.301685 -0.175518
v 0.020391 0.001685 -0.475518
v -0.079609 0.201685 -0.475518
v 0.020391 0.201685 -0.475518
v 0.020391 0.301685 -0.475518
v 0.020391 0.501685 -0.475518
v -0.079609 0.001685 0.624481
v 0.020391 0.001685 0.624481
v -0.079609 0.301685 0.624482
v -0.079609 0.201685 0.324482
v 0.020391 0.301685 0.024482
v 0.020391 0.501685 -0.275518
v -0.079609 0.201685 -0.575518
v 0.020391 0.301685 -0.575518
v 0.020391 0.201685 -0.675518
v 0.020391 0.001685 0.724482
v -0.079609 0.001685 0.324482
v 0.020391 0.001685 0.424481
v 0.020391 0.001685 0.324482
v -0.079609 0.001685 -0.275518
v 0.020391 0.001685 -0.175518
v -0.079609 0.001685 -0.175518
v -0.079609 0.001685 -0.575519
v -0.079609 0.201685 0.724482
v 0.020391 0.201685 0.824482
v -0.079609 0.201685 0.824482
v 0.020391 0.201685 0.724482
v -0.079609 0.201685 0.424482
v -0.079609 0.201685 0.624482
v -0.079609 0.201685 -0.175518
v 0.020391 0.201685 0.024482
v 0.020391 0.201685 -0.175518
v 0.020391 0.201685 -0.275518
v -0.079609 0.201685 -0.275518
v 0.020391 0.201685 -0.575518
v 0.020391 0.301685 0.824482
v 0.020391 0.301685 0.624482
v -0.079609 0.301685 0.324482
v 0.020391 0.301685 0.324482
v -0.079609 0.301685 -0.275518
v 0.020391 0.301685 -0.275518
v -0.079609 0.301685 -0.475518
v -0.079609 0.301685 -0.675518
v 0.020391 0.301685 -0.675518
v -0.079609 0.501685 0.724482
v -0.079609 0.501685 0.624482
v 0.020391 0.501685 0.624482
v -0.079609 0.501685 0.424482
v -0.079609 0.501685 0.324482
v -0.079609 0.501685 0.124482
v -0.079609 0.501685 -0.275518
vt 0.373047 0.500000
vt 0.373047 0.500000
vt 0.373047 0.500000
vt 0.373047 0.500000
vt 0.373047 0.500000
vt 0.373047 0.500000
vt 0.373047 0.500000
vt 0.373047 0.500000
vt 0.373047 0.500000
vt 0.373047 0.500000
vt 0.373047 0.500000
vt 0.373047 0.500000
vt 0.373047 0.500000
vt 0.373047 0.500000
vt 0.373047 0.500000
vt 0.373047 0.500000
vt 0.373047 0.500000
vt 0.373047 0.500000
vt 0.373047 0.500000
vt 0.373047 0.500000
vt 0.373047 0.500000
vt 0.373047 0.500000
vt 0.373047 0.500000
vt 0.373047 0.500000
vt 0.373047 0.500000
vt 0.373047 0.500000
vt 0.373047 0.500000
vt 0.373047 0.500000
vt 0.373047 0.500000
vt 0.373047 0.500000
vt 0.373047 0.500000
vt 0.373047 0.500000
vt 0.373047 0.500000
vt 0.373047 0.500000
vt 0.373047 0.500000
vt 0.373047 0.500000
vt 0.373047 0.500000
vt 0.373047 0.500000
vt 0.373047 0.500000
vt 0.373047 0.500000
vt 0.373047 0.500000
vt 0.373047 0.500000
vt 0.373047 0.500000
vt 0.373047 0.500000
vt 0.373047 0.500000
vt 0.373047 0.500000
vt 0.373047 0.500000
vt 0.373047 0.500000
vt 0.373047 0.500000
vt 0.373047 0.500000
vt 0.373047 0.500000
vt 0.373047 0.500000
vt 0.373047 0.500000
vt 0.373047 0.500000
vt 0.373047 0.500000
vt 0.373047 0.500000
vt 0.373047 0.500000
vt 0.373047 0.500000
vt 0.373047 0.500000
vt 0.373047 0.500000
vt 0.373047 0.500000
vt 0.373047 0.500000
vt 0.373047 0.500000
vt 0.373047 0.500000
vt 0.373047 0.500000
vt 0.373047 0.500000
vt 0.373047 0.500000
vt 0.373047 0.500000
vt 0.373047 0.500000
vt 0.373047 0.500000
vt 0.373047 0.500000
vt 0.373047 0.500000
vt 0.373047 0.500000
vt 0.373047 0.500000
vt 0.373047 0.500000
vt 0.373047 0.500000
vt 0.373047 0.500000
vt 0.373047 0.500000
vt 0.373047 0.500000
vt 0.373047 0.500000
vt 0.373047 0.500000
vt 0.373047 0.500000
vt 0.373047 0.500000
vt 0.373047 0.500000
vt 0.373047 0.500000
vt 0.373047 0.500000
vt 0.373047 0.500000
vt 0.373047 0.500000
vn -1.0000 0.0000 0.0000
vn 1.0000 -0.0000 0.0000
vn 0.0000 0.0000 1.0000
vn 0.0000 0.0000 -1.0000
vn 0.0000 -1.0000 -0.0000
vn 0.0000 1.0000 0.0000
usemtl palette
s off
f 61/1/1 44/2/1 1/3/1
f 66/4/1 44/2/1 61/1/1
f 65/5/1 54/6/1 31/7/1
f 47/8/1 54/6/1 65/5/1
f 34/9/1 2/10/1 3/11/1
f 4/12/1 2/10/1 34/9/1
f 67/13/1 57/14/1 59/15/1
f 71/16/1 57/14/1 67/13/1
f 40/17/1 60/18/1 5/19/1
f 50/20/1 60/18/1 40/17/1
f 6/21/1 71/16/1 67/13/1
f 6/21/1 7/22/1 50/20/1
f 6/21/1 50/20/1 40/17/1
f 6/21/1 40/17/1 71/16/1
f 6/21/1 66/4/1 61/1/1
f 6/21/1 67/13/1 4/12/1
f 6/21/1 47/8/1 65/5/1
f 6/21/1 34/9/1 47/8/1
f 6/21/1 4/12/1 34/9/1
f 6/21/1 65/5/1 66/4/1
f 6/21/1 61/1/1 63/23/1
f 29/24/1 7/22/1 6/21/1
f 46/25/1 7/22/1 29/24/1
f 32/26/1 7/22/1 46/25/1
f 75/27/1 7/22/1 32/26/1
f 36/28/1 7/22/1 75/27/1
f 8/29/1 7/22/1 36/28/1
f 38/30/1 7/22/1 8/29/1
f 77/31/1 7/22/1 38/30/1
f 79/32/1 7/22/1 77/31/1
f 9/33/1 7/22/1 79/32/1
f 80/34/1 7/22/1 9/33/1
f 82/35/1 46/25/1 29/24/1
f 83/36/1 46/25/1 82/35/1
f 85/37/1 75/27/1 32/26/1
f 86/38/1 75/27/1 85/37/1
f 87/39/1 8/29/1 36/28/1
f 10/40/1 8/29/1 87/39/1
f 11/41/1 77/31/1 38/30/1
f 88/42/1 77/31/1 11/41/1
f 12/43/1 9/33/1 79/32/1
f 13/44/1 9/33/1 12/43/1
f 53/45/2 45/46/2 64/47/2
f 64/47/2 45/46/2 14/48/2
f 55/49/2 56/50/2 15/51/2
f 15/51/2 56/50/2 16/52/2
f 33/53/2 17/54/2 18/55/2
f 18/55/2 17/54/2 68/56/2
f 58/57/2 19/58/2 69/59/2
f 69/59/2 19/58/2 70/60/2
f 39/61/2 20/62/2 41/63/2
f 41/63/2 20/62/2 72/64/2
f 69/59/2 70/60/2 73/65/2
f 72/64/2 52/66/2 73/65/2
f 41/63/2 72/64/2 73/65/2
f 70/60/2 41/63/2 73/65/2
f 64/47/2 14/48/2 73/65/2
f 68/56/2 69/59/2 73/65/2
f 15/51/2 16/52/2 73/65/2
f 16/52/2 18/55/2 73/65/2
f 18/55/2 68/56/2 73/65/2
f 14/48/2 15/51/2 73/65/2
f 62/67/2 64/47/2 73/65/2
f 73/65/2 52/66/2 28/68/2
f 28/68/2 52/66/2 74/69/2
f 74/69/2 52/66/2 21/70/2
f 21/70/2 52/66/2 76/71/2
f 76/71/2 52/66/2 35/72/2
f 35/72/2 52/66/2 48/73/2
f 48/73/2 52/66/2 22/74/2
f 22/74/2 52/66/2 78/75/2
f 78/75/2 52/66/2 42/76/2
f 42/76/2 52/66/2 51/77/2
f 51/77/2 52/66/2 81/78/2
f 28/68/2 74/69/2 30/79/2
f 30/79/2 74/69/2 84/80/2
f 21/70/2 76/71/2 23/81/2
f 23/81/2 76/71/2 24/82/2
f 35/72/2 48/73/2 37/83/2
f 37/83/2 48/73/2 25/84/2
f 22/74/2 78/75/2 26/85/2
f 26/85/2 78/75/2 49/86/2
f 42/76/2 51/77/2 43/87/2
f 43/87/2 51/77/2 27/88/2
f 62/67/3 6/21/3 63/23/3
f 73/65/3 6/21/3 62/67/3
f 53/45/3 61/1/3 1/3/3
f 64/47/3 61/1/3 53/45/3
f 28/68/3 82/35/3 29/24/3
f 30/79/3 82/35/3 28/68/3
f 55/49/3 65/5/3 31/7/3
f 15/51/3 65/5/3 55/49/3
f 21/70/3 85/37/3 32/26/3
f 23/81/3 85/37/3 21/70/3
f 33/53/3 34/9/3 3/11/3
f 18/55/3 34/9/3 33/53/3
f 35/72/3 87/39/3 36/28/3
f 37/83/3 87/39/3 35/72/3
f 58/57/3 67/13/3 59/15/3
f 69/59/3 67/13/3 58/57/3
f 22/74/3 11/41/3 38/30/3
f 26/85/3 11/41/3 22/74/3
f 39/61/3 40/17/3 5/19/3
f 41/63/3 40/17/3 39/61/3
f 42/76/3 12/43/3 79/32/3
f 43/87/3 12/43/3 42/76/3
f 44/2/4 66/4/4 45/46/4
f 45/46/4 66/4/4 14/48/4
f 46/25/4 83/36/4 74/69/4
f 74/69/4 83/36/4 84/80/4
f 54/6/4 47/8/4 56/50/4
f 56/50/4 47/8/4 16/52/4
f 75/27/4 86/38/4 76/71/4
f 76/71/4 86/38/4 24/82/4
f 2/10/4 4/12/4 17/54/4
f 17/54/4 4/12/4 68/56/4
f 8/29/4 10/40/4 48/73/4
f 48/73/4 10/40/4 25/84/4
f 57/14/4 71/16/4 19/58/4
f 19/58/4 71/16/4 70/60/4
f 77/31/4 88/42/4 78/75/4
f 78/75/4 88/42/4 49/86/4
f 60/18/4 50/20/4 20/62/4
f 20/62/4 50/20/4 72/64/4
f 9/33/4 13/44/4 51/77/4
f 51/77/4 13/44/4 27/88/4
f 7/22/4 80/34/4 52/66/4
f 52/66/4 80/34/4 81/78/4
f 44/2/5 53/45/5 1/3/5
f 45/46/5 53/45/5 44/2/5
f 54/6/5 55/49/5 31/7/5
f 56/50/5 55/49/5 54/6/5
f 2/10/5 33/53/5 3/11/5
f 17/54/5 33/53/5 2/10/5
f 57/14/5 58/57/5 59/15/5
f 19/58/5 58/57/5 57/14/5
f 60/18/5 39/61/5 5/19/5
f 20/62/5 39/61/5 60/18/5
f 61/1/5 62/67/5 63/23/5
f 64/47/5 62/67/5 61/1/5
f 65/5/5 14/48/5 66/4/5
f 15/51/5 14/48/5 65/5/5
f 34/9/5 16/52/5 47/8/5
f 18/55/5 16/52/5 34/9/5
f 67/13/5 68/56/5 4/12/5
f 69/59/5 68/56/5 67/13/5
f 40/17/5 70/60/5 71/16/5
f 41/63/5 70/60/5 40/17/5
f 7/22/5 72/64/5 50/20/5
f 52/66/5 72/64/5 7/22/5
f 6/21/6 73/65/6 29/24/6
f 29/24/6 73/65/6 28/68/6
f 46/25/6 74/69/6 32/26/6
f 32/26/6 74/69/6 21/70/6
f 75/27/6 76/71/6 36/28/6
f 36/28/6 76/71/6 35/72/6
f 8/29/6 48/73/6 38/30/6
f 38/30/6 48/73/6 22/74/6
f 77/31/6 78/75/6 79/32/6
f 79/32/6 78/75/6 42/76/6
f 9/33/6 51/77/6 80/34/6
f 80/34/6 51/77/6 81/78/6
f 82/35/6 30/79/6 83/36/6
f 83/36/6 30/79/6 84/80/6
f 85/37/6 23/81/6 86/38/6
f 86/38/6 23/81/6 24/82/6
f 87/39/6 37/83/6 10/40/6
f 10/40/6 37/83/6 25/84/6
f 11/41/6 26/85/6 88/42/6
f 88/42/6 26/85/6 49/86/6
f 12/43/6 43/87/6 13/44/6
f 13/44/6 43/87/6 27/88/6
